# xmcd
#
# Track frame offsets:
#	150
#	600
#	11645
#	24662
#	36602
#	49435
#	59970
#	72627
#	82712
#	94088
#	108841
#	120896
#	132138
#	135724
#	138082
#	150686
#	153290
#	168186
#	178449
#	196535
#	210460
#	221526
#	234714
#	244117
#	257804
#
# Disc length: 3611 seconds
#
# Revision: 1
# Processed by: cddbd v1.5.2PL0 Copyright (c) Steve Scherf et al.
# Submitted via: audiograbber 1.83.01
#
DISCID=5c0e1919
DTITLE=The Statler Brothers - The Definitive Collection
DYEAR=2005
DGENRE=Country
TTITLE0=Flowers On The Wall
TTITLE1=Bed Of Rose's
TTITLE2=Do You Remember These?
TTITLE3=Class Of '57
TTITLE4=I'll Go To My Grave Loving You
TTITLE5=Thank God I've Got You
TTITLE6=I Was There
TTITLE7=Do You Know You Are My Sunshine?
TTITLE8=I'll Even Love You Better Than I Did Then
TTITLE9=Don't Wait On Me
TTITLE10=You'll Be Back (Every Night In My Dreams)
TTITLE11=Oh Baby Mine (I Get So Lonely)
TTITLE12=Guilty
TTITLE13=Elizabeth
TTITLE14=Atlanta Blue
TTITLE15=One Takes The Blame
TTITLE16=My Only Love
TTITLE17=Hello Mary Lou
TTITLE18=Too Much On My Heart
TTITLE19=Sweeter And Sweeter
TTITLE20=Count On Me
TTITLE21=Forever
TTITLE22=I'll Be The One
TTITLE23=Let's Get Started If We're Gonna Break My Heart
TTITLE24=More Than A Name On A Wall
EXTD=
EXTT0=
EXTT1=
EXTT2=
EXTT3=
EXTT4=
EXTT5=
EXTT6=
EXTT7=
EXTT8=
EXTT9=
EXTT10=
EXTT11=
EXTT12=
EXTT13=
EXTT14=
EXTT15=
EXTT16=
EXTT17=
EXTT18=
EXTT19=
EXTT20=
EXTT21=
EXTT22=
EXTT23=
EXTT24=
PLAYORDER=
